<svg xmlns="http://www.w3.org/2000/svg" width="256" height="256"><path fill-opacity=".016" d="M0 128.004v128.004l128.25-.254 128.25-.254.254-127.75L257.008 0H0v128.004m.485.496c0 70.4.119 99.053.265 63.672.146-35.38.146-92.98 0-128C.604 29.153.485 58.1.485 128.5" fill="#1976D2" fill-rule="evenodd"/><path fill-opacity=".307" d="M74 70.958V79h15v15H74v16H58v15H43v47h16v-31h15v31h14.916l.292 7.75.292 7.75h31v-15.699l-15.25.144-15.25.145V157h76v15.09l-15.25-.145-15.25-.144V187.5h31l.292-7.75.292-7.75H182v-31h15v31h16v-47h-15v-15h-16V94h-15V79h15V62.916l-7.75.292-7.75.292-.292 7.75-.292 7.75H151v15h-46V79H90.084l-.292-7.75-.292-7.75-7.75-.292-7.75-.292v8.042" fill="#1976D2" fill-rule="evenodd"/><path fill-opacity=".408" d="M74 71.5V79h15V64H74v7.5m93 0V79h15V64h-15v7.5M89.792 86.75L89.5 94.5l-7.75.292-7.75.292V110H59v15l-5.75.014c-3.163.007-6.771.287-8.018.621l-2.269.608.269 22.628.268 22.629 7.25.294 7.25.294V141h16v31h14.916l.292-7.75.292-7.75h77l.292 7.75.292 7.75H182v-31h16v31.088l7.25-.294 7.25-.294.269-22.708.268-22.707-7.768-.293-7.769-.292-.292-7.75-.292-7.75H182V95.084l-7.75-.292-7.75-.292-.292-7.75-.292-7.75H151v16h-46V79H90.084l-.292 7.75M90 179.5v7.5h30v-15H90v7.5m46 0v7.5h30v-15h-30v7.5" fill="#1976D2" fill-rule="evenodd"/><path fill-opacity=".981" d="M75 71.5V79h14V64H75v7.5m92 0V79h14V64h-14v7.5m-77 16V95H75.084l-.292 7.664-.292 7.664-7.75-.23-7.75-.229v7.449c0 8.512-.148 8.643-9.75 8.668L44 126v45h14v-31.081l8.25.291 8.25.29.276 15.25.276 15.25H89v-15h78v15h13.948l.276-15.25.276-15.25 8.25-.29 8.25-.291V171h14v-45h-15v-14.916l-7.75-.292-7.75-.292-.292-7.75-.292-7.75H166V80l-7.25-.002-7.25-.001V94.5h-47V79.997l-7.25.001L90 80v7.5m-.792 30.25l.292 7.75 7.75.292 7.75.292V110H88.916l.292 7.75m61.792.292v8.042l7.75-.292 7.75-.292.292-7.75.292-7.75H151v8.042M90 179.5v7.5h30v-15H90v7.5m46 0v7.5h30v-15h-30v7.5" fill="#1976D2" fill-rule="evenodd"/></svg>